<?xml version="1.0" standalone="no"?>
<!DOCTYPE svg PUBLIC "-//W3C//DTD SVG 20010904//EN"
 "http://www.w3.org/TR/2001/REC-SVG-20010904/DTD/svg10.dtd">
<svg version="1.0" xmlns="http://www.w3.org/2000/svg"
 width="200.000000pt" height="200.000000pt" viewBox="0 0 200.000000 200.000000"
 preserveAspectRatio="xMidYMid meet">
<metadata>
Created by potrace 1.11, written by Peter Selinger 2001-2013
</metadata>
<g transform="translate(0.000000,200.000000) scale(0.100000,-0.100000)"
fill="#000000" stroke="none">
<path d="M871 1674 c-115 -31 -225 -113 -293 -218 -106 -164 -106 -388 0 -552
177 -274 564 -314 792 -83 277 280 153 739 -229 853 -67 20 -197 20 -270 0z
m408 -230 c12 -15 21 -31 21 -36 0 -15 -209 -520 -226 -545 -22 -34 -60 -40
-88 -14 -26 25 -72 161 -62 186 14 37 40 10 65 -68 14 -42 30 -76 35 -74 9 3
215 490 216 511 0 13 -20 6 -279 -100 -132 -55 -239 -103 -238 -108 2 -5 38
-21 81 -36 l77 -27 111 94 c60 52 115 92 121 90 7 -2 13 -13 15 -24 2 -15 -25
-44 -111 -117 -64 -53 -123 -96 -135 -96 -29 0 -183 58 -204 77 -21 19 -23 52
-5 76 13 19 530 235 564 236 12 1 31 -11 42 -25z"/>
<path d="M748 620 c-17 -12 -31 -39 -39 -70 -9 -37 -18 -50 -31 -50 -10 0 -18
-7 -18 -15 0 -8 7 -15 15 -15 20 0 19 -26 -1 -34 -28 -11 -34 -6 -28 24 5 23
2 31 -12 37 -13 5 -26 -4 -50 -31 l-33 -38 6 36 c3 20 1 36 -4 36 -15 0 -33
-23 -33 -42 0 -11 -7 -18 -20 -18 -11 0 -20 6 -20 13 0 18 -32 47 -53 47 -9 0
-28 -10 -42 -23 -36 -30 -38 -92 -5 -119 32 -26 48 -23 87 18 19 20 35 35 36
33 2 -2 7 -17 13 -34 5 -16 14 -29 19 -29 10 1 13 7 39 67 18 42 36 49 36 13
0 -29 30 -42 60 -26 17 9 22 7 30 -15 14 -37 51 -51 87 -33 24 12 34 12 58 2
63 -27 149 -6 161 40 12 49 -2 72 -63 102 -69 35 -85 56 -60 81 33 34 117 15
102 -24 -2 -6 2 -17 10 -23 20 -16 38 21 26 53 -21 54 -126 61 -168 12 -42
-48 -21 -96 58 -129 47 -20 66 -43 53 -64 -28 -43 -114 -34 -114 13 0 18 -5
25 -20 25 -13 0 -20 -7 -20 -18 0 -24 -19 -42 -46 -42 -24 0 -34 17 -34 60 0
26 4 29 37 32 39 3 60 28 24 28 -25 0 -26 4 -5 35 17 26 16 96 -2 102 -6 2
-22 -6 -36 -17z m27 -53 c-4 -14 -15 -33 -25 -42 -17 -16 -18 -15 -9 26 12 53
18 64 31 51 5 -5 6 -21 3 -35z m-333 -144 c14 -18 2 -43 -21 -43 -33 0 -42 48
-13 76 16 17 17 17 21 -2 2 -10 8 -25 13 -31z"/>
<path d="M1122 633 c-15 -6 -46 -65 -56 -105 -3 -16 -13 -28 -21 -28 -8 0 -15
-7 -15 -15 0 -8 7 -15 15 -15 11 0 15 -11 15 -41 0 -22 4 -49 10 -59 13 -24
53 -33 84 -19 20 9 29 9 40 0 16 -13 56 -6 56 10 0 5 11 2 25 -7 23 -15 26
-15 52 4 27 20 27 20 54 0 23 -18 32 -19 59 -9 23 7 38 8 52 0 14 -8 25 -7 41
4 17 11 25 11 47 1 35 -18 68 -7 86 27 20 39 42 37 46 -3 4 -46 28 -42 45 7 7
22 21 47 29 55 14 13 15 10 9 -31 -9 -59 9 -78 55 -59 30 13 57 46 46 57 -3 4
-14 -1 -24 -10 -35 -32 -44 -22 -36 43 6 53 5 60 -11 60 -9 0 -32 -17 -51 -37
l-34 -36 10 34 c12 42 13 39 -6 39 -8 0 -20 -13 -25 -30 -10 -28 -39 -43 -39
-20 0 17 -39 50 -59 50 -32 0 -63 -34 -70 -76 -4 -27 -12 -40 -25 -42 -17 -4
-18 1 -12 58 7 56 6 61 -11 58 -12 -2 -21 -18 -28 -50 -12 -56 -25 -71 -56
-66 -20 2 -24 10 -27 45 -3 42 -3 42 34 45 44 4 60 28 19 28 l-26 0 20 26 c26
33 29 99 4 108 -24 10 -62 -32 -76 -83 -7 -27 -19 -46 -29 -49 -22 -5 -24 -32
-3 -32 22 0 19 -53 -3 -73 -34 -31 -43 -21 -36 37 6 52 6 53 -22 60 -42 11
-81 -21 -104 -86 -13 -38 -56 -39 -70 -2 -19 49 -13 63 27 66 39 3 60 28 24
28 l-21 0 20 33 c22 36 26 77 8 95 -13 13 -16 13 -36 5z m2 -101 c-26 -38 -31
-6 -8 45 l18 38 4 -28 c2 -16 -4 -40 -14 -55z m303 26 c-19 -46 -40 -61 -31
-21 14 57 24 77 35 66 7 -7 6 -21 -4 -45z m-169 -130 c-9 -43 -24 -61 -41 -51
-11 7 -1 61 14 80 24 29 37 15 27 -29z m374 -40 c-6 -6 -18 -8 -26 -5 -19 8
-21 58 -4 75 10 10 15 4 26 -24 11 -25 12 -38 4 -46z"/>
<path d="M225 623 c-11 -3 -32 -14 -48 -25 -85 -60 -101 -255 -24 -282 41 -15
60 2 72 65 10 51 12 54 48 62 67 16 107 92 77 147 -16 30 -75 45 -125 33z m80
-57 c19 -28 7 -69 -24 -85 -34 -18 -39 -13 -33 35 4 41 3 46 -14 42 -13 -2
-22 -16 -28 -45 -6 -29 -15 -43 -30 -47 -20 -6 -20 -7 -3 -20 16 -12 18 -22
12 -55 -7 -42 -28 -55 -39 -25 -11 29 -6 115 9 152 21 49 51 72 97 72 29 0 41
-6 53 -24z"/>
<path d="M1490 550 c0 -15 7 -20 25 -20 18 0 25 5 25 20 0 15 -7 20 -25 20
-18 0 -25 -5 -25 -20z"/>
</g>
</svg>
